M48
;Layer_Color=9474304
;FILE_FORMAT=4:3
METRIC,LZ
;TYPE=PLATED
T1F00S00C0.300
T2F00S00C0.700
%
T01
X0178756Y0061476
Y0065146
X0178122Y0068272
Y0070301
X0176195Y0073656
X0184205Y0065611
X01852Y0062525
X0186894Y0062978
X0187654Y0062351
X0188421Y0061778
X018964Y006234
X0189513Y0064067
X0179734Y0077402
T02
X0170217Y0075201
X0172217
X0174217
X0176217
X0178217
Y0077201
X0176217
X0174217
X0172217
X0170217
M30
