G04*
G04 #@! TF.GenerationSoftware,Altium Limited,Altium Designer,19.1.8 (144)*
G04*
G04 Layer_Color=32896*
%FSLAX43Y43*%
%MOMM*%
G71*
G01*
G75*
%ADD34C,0.254*%
%ADD35C,0.152*%
D34*
X172767Y88325D02*
X174291Y88833D01*
X172767Y88325D02*
X174291Y87817D01*
X166243D02*
X167767Y88325D01*
X166243Y88833D02*
X167767Y88325D01*
X172767D02*
X175307D01*
X165227D02*
X167767D01*
Y80055D02*
Y88579D01*
X172767Y67055D02*
Y88579D01*
X169767Y83475D02*
X171291Y83983D01*
X169767Y83475D02*
X171291Y82967D01*
X166243D02*
X167767Y83475D01*
X166243Y83983D02*
X167767Y83475D01*
X169767D02*
X172307D01*
X165227D02*
X167767D01*
Y80055D02*
Y83729D01*
X169767Y67055D02*
Y83729D01*
X167767Y93050D02*
X169291Y93558D01*
X167767Y93050D02*
X169291Y92542D01*
X193243D02*
X194767Y93050D01*
X193243Y93558D02*
X194767Y93050D01*
X167767D02*
X177672D01*
X184050D02*
X194767D01*
X167767Y80055D02*
Y93304D01*
X194767Y80055D02*
Y93304D01*
X145450Y79801D02*
X145958Y78277D01*
X144942D02*
X145450Y79801D01*
X144942Y61825D02*
X145450Y60301D01*
X145958Y61825D01*
X145450Y72714D02*
Y79801D01*
Y60301D02*
Y66575D01*
X145196Y79801D02*
X167513D01*
X145196Y60301D02*
X171138D01*
X153100Y79801D02*
X153608Y78277D01*
X152592D02*
X153100Y79801D01*
X152592Y74825D02*
X153100Y73301D01*
X153608Y74825D01*
X153100Y76551D02*
Y79801D01*
Y73301D02*
Y76551D01*
X152846Y79801D02*
X167513D01*
X152846Y73301D02*
X171013D01*
X139375Y79801D02*
X139883Y78277D01*
X138867D02*
X139375Y79801D01*
X138867Y60325D02*
X139375Y58801D01*
X139883Y60325D01*
X139375Y71964D02*
Y79801D01*
Y58801D02*
Y65825D01*
X139121Y79801D02*
X167513D01*
X139121Y58801D02*
X167513D01*
D35*
X161331Y88934D02*
X160605D01*
X160533Y88281D01*
X160605Y88354D01*
X160823Y88427D01*
X161040D01*
X161258Y88354D01*
X161403Y88209D01*
X161476Y87991D01*
Y87846D01*
X161403Y87628D01*
X161258Y87483D01*
X161040Y87411D01*
X160823D01*
X160605Y87483D01*
X160533Y87556D01*
X160460Y87701D01*
X161889Y87556D02*
X161817Y87483D01*
X161889Y87411D01*
X161962Y87483D01*
X161889Y87556D01*
X162731Y88934D02*
X162513Y88862D01*
X162368Y88644D01*
X162296Y88281D01*
Y88064D01*
X162368Y87701D01*
X162513Y87483D01*
X162731Y87411D01*
X162876D01*
X163094Y87483D01*
X163239Y87701D01*
X163311Y88064D01*
Y88281D01*
X163239Y88644D01*
X163094Y88862D01*
X162876Y88934D01*
X162731D01*
X164088D02*
X163870Y88862D01*
X163725Y88644D01*
X163652Y88281D01*
Y88064D01*
X163725Y87701D01*
X163870Y87483D01*
X164088Y87411D01*
X164233D01*
X164451Y87483D01*
X164596Y87701D01*
X164668Y88064D01*
Y88281D01*
X164596Y88644D01*
X164451Y88862D01*
X164233Y88934D01*
X164088D01*
X160533Y83722D02*
Y83794D01*
X160605Y83939D01*
X160678Y84012D01*
X160823Y84084D01*
X161113D01*
X161258Y84012D01*
X161331Y83939D01*
X161403Y83794D01*
Y83649D01*
X161331Y83504D01*
X161186Y83286D01*
X160460Y82561D01*
X161476D01*
X161889Y82706D02*
X161817Y82633D01*
X161889Y82561D01*
X161962Y82633D01*
X161889Y82706D01*
X162731Y84084D02*
X162513Y84012D01*
X162368Y83794D01*
X162296Y83431D01*
Y83214D01*
X162368Y82851D01*
X162513Y82633D01*
X162731Y82561D01*
X162876D01*
X163094Y82633D01*
X163239Y82851D01*
X163311Y83214D01*
Y83431D01*
X163239Y83794D01*
X163094Y84012D01*
X162876Y84084D01*
X162731D01*
X164088D02*
X163870Y84012D01*
X163725Y83794D01*
X163652Y83431D01*
Y83214D01*
X163725Y82851D01*
X163870Y82633D01*
X164088Y82561D01*
X164233D01*
X164451Y82633D01*
X164596Y82851D01*
X164668Y83214D01*
Y83431D01*
X164596Y83794D01*
X164451Y84012D01*
X164233Y84084D01*
X164088D01*
X178151Y93297D02*
Y93369D01*
X178223Y93514D01*
X178296Y93587D01*
X178441Y93659D01*
X178731D01*
X178876Y93587D01*
X178949Y93514D01*
X179021Y93369D01*
Y93224D01*
X178949Y93079D01*
X178804Y92861D01*
X178078Y92136D01*
X179094D01*
X180451Y93659D02*
X179725Y92136D01*
X179435Y93659D02*
X180451D01*
X180864Y92281D02*
X180792Y92208D01*
X180864Y92136D01*
X180937Y92208D01*
X180864Y92281D01*
X181706Y93659D02*
X181488Y93587D01*
X181343Y93369D01*
X181271Y93006D01*
Y92789D01*
X181343Y92426D01*
X181488Y92208D01*
X181706Y92136D01*
X181851D01*
X182069Y92208D01*
X182214Y92426D01*
X182286Y92789D01*
Y93006D01*
X182214Y93369D01*
X182069Y93587D01*
X181851Y93659D01*
X181706D01*
X183063D02*
X182845Y93587D01*
X182700Y93369D01*
X182627Y93006D01*
Y92789D01*
X182700Y92426D01*
X182845Y92208D01*
X183063Y92136D01*
X183208D01*
X183425Y92208D01*
X183571Y92426D01*
X183643Y92789D01*
Y93006D01*
X183571Y93369D01*
X183425Y93587D01*
X183208Y93659D01*
X183063D01*
X145131Y66982D02*
X145058Y67127D01*
X144841Y67345D01*
X146364D01*
X145348Y69042D02*
X145566Y68970D01*
X145711Y68825D01*
X145784Y68607D01*
Y68534D01*
X145711Y68317D01*
X145566Y68172D01*
X145348Y68099D01*
X145276D01*
X145058Y68172D01*
X144913Y68317D01*
X144841Y68534D01*
Y68607D01*
X144913Y68825D01*
X145058Y68970D01*
X145348Y69042D01*
X145711D01*
X146074Y68970D01*
X146292Y68825D01*
X146364Y68607D01*
Y68462D01*
X146292Y68244D01*
X146147Y68172D01*
X146219Y69529D02*
X146292Y69456D01*
X146364Y69529D01*
X146292Y69601D01*
X146219Y69529D01*
X144841Y70805D02*
Y70080D01*
X145494Y70007D01*
X145421Y70080D01*
X145348Y70298D01*
Y70515D01*
X145421Y70733D01*
X145566Y70878D01*
X145784Y70951D01*
X145929D01*
X146147Y70878D01*
X146292Y70733D01*
X146364Y70515D01*
Y70298D01*
X146292Y70080D01*
X146219Y70007D01*
X146074Y69935D01*
X144841Y71727D02*
X144913Y71509D01*
X145131Y71364D01*
X145494Y71292D01*
X145711D01*
X146074Y71364D01*
X146292Y71509D01*
X146364Y71727D01*
Y71872D01*
X146292Y72090D01*
X146074Y72235D01*
X145711Y72307D01*
X145494D01*
X145131Y72235D01*
X144913Y72090D01*
X144841Y71872D01*
Y71727D01*
X152708Y69484D02*
X152563Y69412D01*
X152491Y69194D01*
Y69049D01*
X152563Y68831D01*
X152781Y68686D01*
X153144Y68614D01*
X153506D01*
X153797Y68686D01*
X153942Y68831D01*
X154014Y69049D01*
Y69122D01*
X153942Y69339D01*
X153797Y69484D01*
X153579Y69557D01*
X153506D01*
X153289Y69484D01*
X153144Y69339D01*
X153071Y69122D01*
Y69049D01*
X153144Y68831D01*
X153289Y68686D01*
X153506Y68614D01*
X153869Y69963D02*
X153942Y69891D01*
X154014Y69963D01*
X153942Y70036D01*
X153869Y69963D01*
X152491Y71240D02*
Y70515D01*
X153144Y70442D01*
X153071Y70515D01*
X152998Y70732D01*
Y70950D01*
X153071Y71168D01*
X153216Y71313D01*
X153434Y71385D01*
X153579D01*
X153797Y71313D01*
X153942Y71168D01*
X154014Y70950D01*
Y70732D01*
X153942Y70515D01*
X153869Y70442D01*
X153724Y70370D01*
X152491Y72162D02*
X152563Y71944D01*
X152781Y71799D01*
X153144Y71726D01*
X153361D01*
X153724Y71799D01*
X153942Y71944D01*
X154014Y72162D01*
Y72307D01*
X153942Y72525D01*
X153724Y72670D01*
X153361Y72742D01*
X153144D01*
X152781Y72670D01*
X152563Y72525D01*
X152491Y72307D01*
Y72162D01*
X139128Y66304D02*
X139056D01*
X138911Y66377D01*
X138838Y66449D01*
X138766Y66595D01*
Y66885D01*
X138838Y67030D01*
X138911Y67102D01*
X139056Y67175D01*
X139201D01*
X139346Y67102D01*
X139564Y66957D01*
X140289Y66232D01*
Y67248D01*
X139056Y67589D02*
X138983Y67734D01*
X138766Y67951D01*
X140289D01*
X140144Y68779D02*
X140217Y68706D01*
X140289Y68779D01*
X140217Y68851D01*
X140144Y68779D01*
X138766Y69620D02*
X138838Y69402D01*
X139056Y69257D01*
X139419Y69185D01*
X139636D01*
X139999Y69257D01*
X140217Y69402D01*
X140289Y69620D01*
Y69765D01*
X140217Y69983D01*
X139999Y70128D01*
X139636Y70201D01*
X139419D01*
X139056Y70128D01*
X138838Y69983D01*
X138766Y69765D01*
Y69620D01*
Y70977D02*
X138838Y70759D01*
X139056Y70614D01*
X139419Y70542D01*
X139636D01*
X139999Y70614D01*
X140217Y70759D01*
X140289Y70977D01*
Y71122D01*
X140217Y71340D01*
X139999Y71485D01*
X139636Y71557D01*
X139419D01*
X139056Y71485D01*
X138838Y71340D01*
X138766Y71122D01*
Y70977D01*
M02*
