G04*
G04 #@! TF.GenerationSoftware,Altium Limited,Altium Designer,19.1.8 (144)*
G04*
G04 Layer_Physical_Order=3*
G04 Layer_Color=16711680*
%FSLAX43Y43*%
%MOMM*%
G71*
G01*
G75*
%ADD14R,3.000X3.000*%
%ADD23C,0.300*%
%ADD24R,1.350X1.350*%
%ADD25C,1.350*%
%ADD26C,0.600*%
%ADD32R,3.000X0.700*%
D14*
X176195Y61421D02*
D03*
Y65598D02*
D03*
Y70301D02*
D03*
D23*
X181275Y62691D02*
X183959D01*
X184125Y62525D02*
X185200D01*
X183959Y62691D02*
X184125Y62525D01*
X179531Y70301D02*
X181275D01*
X179506Y70925D02*
X179531Y70301D01*
X178312Y72119D02*
X179506Y70925D01*
X175299Y72119D02*
X178312D01*
X172217Y75201D02*
X175299Y72119D01*
X181275Y69031D02*
X183062D01*
X183087Y69056D01*
Y72932D01*
X179811Y76208D02*
X183087Y72932D01*
X175224Y76208D02*
X179811D01*
X174217Y75201D02*
X175224Y76208D01*
X179773Y71571D02*
X181275D01*
X176217Y75201D02*
X179773Y71571D01*
X178947Y78189D02*
X179734Y77402D01*
X171645Y78189D02*
X178947D01*
X171225Y77770D02*
X171645Y78189D01*
X171225Y76209D02*
Y77770D01*
X170217Y75201D02*
X171225Y76209D01*
X176195Y61421D02*
Y65611D01*
Y61421D02*
X178130Y63356D01*
X186516D01*
X186894Y62978D01*
X181275Y65611D02*
X184205D01*
X181275Y64341D02*
X186956D01*
X188564Y62734D01*
X188421Y61778D02*
X188564Y61921D01*
Y62734D01*
X181275Y66881D02*
X185099D01*
X189640Y62340D01*
X181275Y61421D02*
X186994D01*
X187596Y62023D02*
Y62294D01*
X186994Y61421D02*
X187596Y62023D01*
Y62294D02*
X187654Y62351D01*
X181275Y60151D02*
X189331D01*
X190250Y61070D01*
Y63330D01*
X189513Y64067D02*
X190250Y63330D01*
X176195Y70301D02*
X178122D01*
D24*
X178217Y75201D02*
D03*
D25*
Y77201D02*
D03*
X176217Y75201D02*
D03*
Y77201D02*
D03*
X174217Y75201D02*
D03*
Y77201D02*
D03*
X172217Y75201D02*
D03*
Y77201D02*
D03*
X170217Y75201D02*
D03*
Y77201D02*
D03*
D26*
X185200Y62525D02*
D03*
X179734Y77402D02*
D03*
X186894Y62978D02*
D03*
X184205Y65611D02*
D03*
X188421Y61778D02*
D03*
X189640Y62340D02*
D03*
X187654Y62351D02*
D03*
X189513Y64067D02*
D03*
X176195Y73656D02*
D03*
X178122Y68272D02*
D03*
X178756Y65146D02*
D03*
Y61476D02*
D03*
X178122Y70301D02*
D03*
D32*
X181275D02*
D03*
Y69031D02*
D03*
Y71571D02*
D03*
Y65598D02*
D03*
Y64328D02*
D03*
Y66868D02*
D03*
Y61421D02*
D03*
Y60151D02*
D03*
Y62691D02*
D03*
M02*
