G04*
G04 #@! TF.GenerationSoftware,Altium Limited,Altium Designer,19.1.8 (144)*
G04*
G04 Layer_Color=16711935*
%FSLAX43Y43*%
%MOMM*%
G71*
G01*
G75*
%ADD41C,0.150*%
D41*
X170767Y73301D02*
X171767Y73301D01*
X171865D01*
X172059Y73263D01*
X172241Y73187D01*
X172404Y73078D01*
X172544Y72938D01*
X172653Y72775D01*
X172729Y72593D01*
X172767Y72399D01*
X172767Y72301D02*
X172767Y72399D01*
X172767Y72301D02*
X172767Y72301D01*
X172767Y61301D02*
X172767Y72301D01*
X172767Y61301D02*
X172779Y61215D01*
X172770Y61041D02*
X172779Y61215D01*
X172727Y60872D02*
X172770Y61041D01*
X172651Y60715D02*
X172727Y60872D01*
X172547Y60576D02*
X172651Y60715D01*
X172417Y60460D02*
X172547Y60576D01*
X172267Y60371D02*
X172417Y60460D01*
X172103Y60313D02*
X172267Y60371D01*
X172017Y60301D02*
X172103Y60313D01*
X172017Y60301D02*
X172017Y60301D01*
X170767Y60301D02*
X172017Y60301D01*
X170668Y60301D02*
X170767Y60301D01*
X170475Y60339D02*
X170668Y60301D01*
X170293Y60415D02*
X170475Y60339D01*
X170129Y60524D02*
X170293Y60415D01*
X169990Y60663D02*
X170129Y60524D01*
X169881Y60827D02*
X169990Y60663D01*
X169805Y61009D02*
X169881Y60827D01*
X169767Y61202D02*
X169805Y61009D01*
X169767Y61202D02*
X169767Y61301D01*
Y61301D01*
Y72301D01*
Y72399D01*
X169805Y72593D01*
X169881Y72775D01*
X169990Y72938D01*
X170130Y73078D01*
X170293Y73187D01*
X170475Y73263D01*
X170668Y73301D01*
X170767Y73301D01*
X170767Y73301D01*
X194767Y58801D02*
Y79801D01*
X167767D02*
X194767D01*
X167767Y58801D02*
Y79801D01*
Y58801D02*
X194767Y58801D01*
M02*
