G04*
G04 #@! TF.GenerationSoftware,Altium Limited,Altium Designer,19.1.8 (144)*
G04*
G04 Layer_Color=8388736*
%FSLAX43Y43*%
%MOMM*%
G71*
G01*
G75*
%ADD16R,3.203X0.903*%
%ADD17R,0.503X1.003*%
%ADD18R,3.203X3.203*%
%ADD19R,0.603X1.003*%
%ADD20R,1.553X1.553*%
%ADD21C,1.553*%
%ADD22C,0.803*%
D16*
X181275Y71029D02*
D03*
Y72429D02*
D03*
Y68972D02*
D03*
Y67572D02*
D03*
Y64101D02*
D03*
Y60601D02*
D03*
Y62001D02*
D03*
Y65501D02*
D03*
D17*
X187517Y63201D02*
D03*
X191017D02*
D03*
X190517D02*
D03*
X188517D02*
D03*
X189517D02*
D03*
X188017D02*
D03*
X190017D02*
D03*
X189017D02*
D03*
D18*
X176195Y71729D02*
D03*
Y68272D02*
D03*
Y64801D02*
D03*
Y61301D02*
D03*
D19*
X192017Y65701D02*
D03*
X186517D02*
D03*
D20*
X178217Y75201D02*
D03*
D21*
Y77201D02*
D03*
X176217Y75201D02*
D03*
Y77201D02*
D03*
X174217Y75201D02*
D03*
Y77201D02*
D03*
X172217Y75201D02*
D03*
Y77201D02*
D03*
X170217Y75201D02*
D03*
Y77201D02*
D03*
D22*
X185200Y62525D02*
D03*
X179734Y77402D02*
D03*
X186894Y62978D02*
D03*
X184205Y65611D02*
D03*
X188421Y61778D02*
D03*
X189640Y62340D02*
D03*
X187654Y62351D02*
D03*
X189513Y64067D02*
D03*
X176195Y73656D02*
D03*
X178122Y68272D02*
D03*
X178756Y65146D02*
D03*
Y61476D02*
D03*
X178122Y70301D02*
D03*
M02*
