G04*
G04 #@! TF.GenerationSoftware,Altium Limited,Altium Designer,19.1.8 (144)*
G04*
G04 Layer_Color=32896*
%FSLAX43Y43*%
%MOMM*%
G71*
G01*
G75*
%ADD11C,0.152*%
D11*
X183078Y71165D02*
Y71927D01*
Y71165D02*
X183404D01*
X183513Y71201D01*
X183550Y71238D01*
X183586Y71310D01*
Y71383D01*
X183550Y71455D01*
X183513Y71492D01*
X183404Y71528D01*
X183078D02*
X183404D01*
X183513Y71564D01*
X183550Y71600D01*
X183586Y71673D01*
Y71782D01*
X183550Y71854D01*
X183513Y71891D01*
X183404Y71927D01*
X183078D01*
X183078Y68625D02*
Y69387D01*
Y68625D02*
X183404D01*
X183513Y68661D01*
X183550Y68698D01*
X183586Y68770D01*
Y68843D01*
X183550Y68915D01*
X183513Y68952D01*
X183404Y68988D01*
X183078D01*
X183332D02*
X183586Y69387D01*
X183078Y69895D02*
X183259Y70657D01*
X183441Y69895D02*
X183259Y70657D01*
X183441Y69895D02*
X183622Y70657D01*
X183804Y69895D02*
X183622Y70657D01*
X183078Y66462D02*
Y67224D01*
Y66462D02*
X183404D01*
X183513Y66499D01*
X183550Y66535D01*
X183586Y66608D01*
Y66680D01*
X183550Y66753D01*
X183513Y66789D01*
X183404Y66825D01*
X183078D02*
X183404D01*
X183513Y66861D01*
X183550Y66898D01*
X183586Y66970D01*
Y67079D01*
X183550Y67152D01*
X183513Y67188D01*
X183404Y67224D01*
X183078D01*
X183078Y63922D02*
Y64684D01*
Y63922D02*
X183404D01*
X183513Y63959D01*
X183550Y63995D01*
X183586Y64068D01*
Y64140D01*
X183550Y64213D01*
X183513Y64249D01*
X183404Y64285D01*
X183078D01*
X183332D02*
X183586Y64684D01*
X183078Y65192D02*
X183259Y65954D01*
X183441Y65192D02*
X183259Y65954D01*
X183441Y65192D02*
X183622Y65954D01*
X183804Y65192D02*
X183622Y65954D01*
X183078Y62285D02*
Y63047D01*
Y62285D02*
X183404D01*
X183513Y62321D01*
X183550Y62358D01*
X183586Y62430D01*
Y62503D01*
X183550Y62575D01*
X183513Y62612D01*
X183404Y62648D01*
X183078D02*
X183404D01*
X183513Y62684D01*
X183550Y62720D01*
X183586Y62793D01*
Y62902D01*
X183550Y62974D01*
X183513Y63011D01*
X183404Y63047D01*
X183078D01*
X183078Y59745D02*
Y60507D01*
Y59745D02*
X183404D01*
X183513Y59781D01*
X183550Y59818D01*
X183586Y59890D01*
Y59963D01*
X183550Y60035D01*
X183513Y60072D01*
X183404Y60108D01*
X183078D01*
X183332D02*
X183586Y60507D01*
X183078Y61015D02*
X183259Y61777D01*
X183441Y61015D02*
X183259Y61777D01*
X183441Y61015D02*
X183622Y61777D01*
X183804Y61015D02*
X183622Y61777D01*
X184806Y69935D02*
X184443Y70225D01*
X184044D01*
X184806Y70516D02*
X184443Y70225D01*
X184661Y70613D02*
X184697Y70686D01*
X184806Y70795D01*
X184044D01*
X184806Y63582D02*
X184443Y63872D01*
X184044D01*
X184806Y64162D02*
X184443Y63872D01*
X184625Y64297D02*
X184661D01*
X184733Y64333D01*
X184770Y64369D01*
X184806Y64442D01*
Y64587D01*
X184770Y64659D01*
X184733Y64696D01*
X184661Y64732D01*
X184588D01*
X184516Y64696D01*
X184407Y64623D01*
X184044Y64260D01*
Y64768D01*
X184806Y59732D02*
X184443Y60022D01*
X184044D01*
X184806Y60312D02*
X184443Y60022D01*
X184806Y60483D02*
Y60882D01*
X184516Y60664D01*
Y60773D01*
X184479Y60846D01*
X184443Y60882D01*
X184334Y60918D01*
X184262D01*
X184153Y60882D01*
X184080Y60809D01*
X184044Y60700D01*
Y60592D01*
X184080Y60483D01*
X184117Y60447D01*
X184189Y60410D01*
M02*
