G04*
G04 #@! TF.GenerationSoftware,Altium Limited,Altium Designer,19.1.8 (144)*
G04*
G04 Layer_Physical_Order=2*
G04 Layer_Color=32768*
%FSLAX43Y43*%
%MOMM*%
G71*
G01*
G75*
%ADD27C,0.508*%
G04:AMPARAMS|DCode=28|XSize=1.716mm|YSize=1.716mm|CornerRadius=0mm|HoleSize=0mm|Usage=FLASHONLY|Rotation=0.000|XOffset=0mm|YOffset=0mm|HoleType=Round|Shape=Relief|Width=0.254mm|Gap=0.254mm|Entries=4|*
%AMTHD28*
7,0,0,1.716,1.208,0.254,45*
%
%ADD28THD28*%
%ADD29C,1.716*%
%ADD30C,1.316*%
G04:AMPARAMS|DCode=31|XSize=1.316mm|YSize=1.316mm|CornerRadius=0mm|HoleSize=0mm|Usage=FLASHONLY|Rotation=0.000|XOffset=0mm|YOffset=0mm|HoleType=Round|Shape=Relief|Width=0.254mm|Gap=0.254mm|Entries=4|*
%AMTHD31*
7,0,0,1.316,0.808,0.254,45*
%
%ADD31THD31*%
G36*
X171767Y73301D02*
X171865D01*
X172059Y73263D01*
X172241Y73187D01*
X172404Y73078D01*
X172544Y72938D01*
X172653Y72775D01*
X172729Y72593D01*
X172767Y72399D01*
X172767Y72301D01*
X172767Y72301D01*
X172767Y61301D01*
X172779Y61215D01*
X172770Y61041D01*
X172727Y60872D01*
X172651Y60715D01*
X172547Y60576D01*
X172417Y60460D01*
X172267Y60371D01*
X172103Y60313D01*
X172017Y60301D01*
X172017Y60301D01*
X170767Y60301D01*
X170668Y60301D01*
X170475Y60339D01*
X170293Y60415D01*
X170129Y60524D01*
X169990Y60663D01*
X169881Y60827D01*
X169805Y61009D01*
X169767Y61202D01*
X169767Y61301D01*
Y61301D01*
Y72301D01*
Y72399D01*
X169805Y72593D01*
X169881Y72775D01*
X169990Y72938D01*
X170130Y73078D01*
X170293Y73187D01*
X170475Y73263D01*
X170668Y73301D01*
X170767Y73301D01*
X170767Y73301D01*
X171767Y73301D01*
D02*
G37*
D27*
X170767Y73301D02*
X171767Y73301D01*
X171865D01*
X172059Y73263D01*
X172241Y73187D01*
X172404Y73078D01*
X172544Y72938D01*
X172653Y72775D01*
X172729Y72593D01*
X172767Y72399D01*
X172767Y72301D02*
X172767Y72399D01*
X172767Y72301D02*
X172767Y72301D01*
X172767Y61301D02*
X172767Y72301D01*
X172767Y61301D02*
X172779Y61215D01*
X172770Y61041D02*
X172779Y61215D01*
X172727Y60872D02*
X172770Y61041D01*
X172651Y60715D02*
X172727Y60872D01*
X172547Y60576D02*
X172651Y60715D01*
X172417Y60460D02*
X172547Y60576D01*
X172267Y60371D02*
X172417Y60460D01*
X172103Y60313D02*
X172267Y60371D01*
X172017Y60301D02*
X172103Y60313D01*
X172017Y60301D02*
X172017Y60301D01*
X170767Y60301D02*
X172017Y60301D01*
X170668Y60301D02*
X170767Y60301D01*
X170475Y60339D02*
X170668Y60301D01*
X170293Y60415D02*
X170475Y60339D01*
X170129Y60524D02*
X170293Y60415D01*
X169990Y60663D02*
X170129Y60524D01*
X169881Y60827D02*
X169990Y60663D01*
X169805Y61009D02*
X169881Y60827D01*
X169767Y61202D02*
X169805Y61009D01*
X169767Y61202D02*
X169767Y61301D01*
Y61301D01*
Y72301D01*
Y72399D01*
X169805Y72593D01*
X169881Y72775D01*
X169990Y72938D01*
X170130Y73078D01*
X170293Y73187D01*
X170475Y73263D01*
X170668Y73301D01*
X170767Y73301D01*
X170767Y73301D01*
X194767Y58801D02*
Y79801D01*
X167767D02*
X194767D01*
X167767Y58801D02*
Y79801D01*
Y58801D02*
X194767Y58801D01*
D28*
X178217Y75201D02*
D03*
D29*
Y77201D02*
D03*
X176217Y75201D02*
D03*
Y77201D02*
D03*
X174217Y75201D02*
D03*
Y77201D02*
D03*
X172217Y75201D02*
D03*
Y77201D02*
D03*
X170217Y75201D02*
D03*
Y77201D02*
D03*
D30*
X185200Y62525D02*
D03*
X179734Y77402D02*
D03*
X186894Y62978D02*
D03*
X184205Y65611D02*
D03*
X188421Y61778D02*
D03*
X189640Y62340D02*
D03*
X187654Y62351D02*
D03*
X189513Y64067D02*
D03*
D31*
X176195Y73656D02*
D03*
X178122Y68272D02*
D03*
X178756Y65146D02*
D03*
Y61476D02*
D03*
X178122Y70301D02*
D03*
M02*
