G04*
G04 #@! TF.GenerationSoftware,Altium Limited,Altium Designer,19.1.8 (144)*
G04*
G04 Layer_Color=128*
%FSLAX43Y43*%
%MOMM*%
G71*
G01*
G75*
%ADD42C,0.051*%
D42*
X177867Y75201D02*
X178567D01*
X178217Y74851D02*
Y75551D01*
X177867Y77201D02*
X178567D01*
X178217Y76851D02*
Y77551D01*
X175867Y75201D02*
X176567D01*
X176217Y74851D02*
Y75551D01*
X175867Y77201D02*
X176567D01*
X176217Y76851D02*
Y77551D01*
X173867Y75201D02*
X174567D01*
X174217Y74851D02*
Y75551D01*
X173867Y77201D02*
X174567D01*
X174217Y76851D02*
Y77551D01*
X171867Y75201D02*
X172567D01*
X172217Y74851D02*
Y75551D01*
X171867Y77201D02*
X172567D01*
X172217Y76851D02*
Y77551D01*
X169867Y75201D02*
X170567D01*
X170217Y74851D02*
Y75551D01*
X169867Y77201D02*
X170567D01*
X170217Y76851D02*
Y77551D01*
X185050Y62525D02*
X185350D01*
X185200Y62375D02*
Y62675D01*
X179584Y77402D02*
X179884D01*
X179734Y77252D02*
Y77552D01*
X186744Y62978D02*
X187044D01*
X186894Y62828D02*
Y63128D01*
X184055Y65611D02*
X184355D01*
X184205Y65461D02*
Y65761D01*
X188271Y61778D02*
X188571D01*
X188421Y61628D02*
Y61928D01*
X189490Y62340D02*
X189790D01*
X189640Y62190D02*
Y62490D01*
X187504Y62351D02*
X187804D01*
X187654Y62201D02*
Y62501D01*
X189363Y64067D02*
X189663D01*
X189513Y63917D02*
Y64217D01*
X176045Y73656D02*
X176345D01*
X176195Y73506D02*
Y73806D01*
X177972Y68272D02*
X178272D01*
X178122Y68122D02*
Y68422D01*
X178606Y65146D02*
X178906D01*
X178756Y64996D02*
Y65297D01*
X178606Y61476D02*
X178906D01*
X178756Y61326D02*
Y61626D01*
X177972Y70301D02*
X178272D01*
X178122Y70151D02*
Y70451D01*
M02*
