G04*
G04 #@! TF.GenerationSoftware,Altium Limited,Altium Designer,19.1.8 (144)*
G04*
G04 Layer_Color=65535*
%FSLAX43Y43*%
%MOMM*%
G71*
G01*
G75*
%ADD10C,0.200*%
%ADD11C,0.152*%
D10*
X168267Y73701D02*
X180167D01*
Y78701D01*
X168267D02*
X180167D01*
X168267Y73685D02*
Y78701D01*
X192342Y63251D02*
Y65001D01*
X191567Y63251D02*
X192342D01*
X191567Y62876D02*
X192017D01*
X191567D02*
Y63251D01*
X192017Y62376D02*
Y62876D01*
X187017Y66226D02*
X191517D01*
X186192Y63251D02*
X186967D01*
X186192D02*
Y65001D01*
X186517Y62376D02*
X192017D01*
X186967Y62876D02*
Y63251D01*
X186517Y62376D02*
Y62876D01*
X186967D01*
D11*
X181847Y77277D02*
Y76515D01*
Y77277D02*
X182174D01*
X182282Y77241D01*
X182319Y77204D01*
X182355Y77132D01*
Y77059D01*
X182319Y76987D01*
X182282Y76950D01*
X182174Y76914D01*
X181847D01*
X182101D02*
X182355Y76515D01*
X182707Y77023D02*
X182634Y76987D01*
X182562Y76914D01*
X182525Y76805D01*
Y76733D01*
X182562Y76624D01*
X182634Y76551D01*
X182707Y76515D01*
X182816D01*
X182888Y76551D01*
X182961Y76624D01*
X182997Y76733D01*
Y76805D01*
X182961Y76914D01*
X182888Y76987D01*
X182816Y77023D01*
X182707D01*
X183164Y77277D02*
Y76515D01*
Y76914D02*
X183237Y76987D01*
X183309Y77023D01*
X183418D01*
X183490Y76987D01*
X183563Y76914D01*
X183599Y76805D01*
Y76733D01*
X183563Y76624D01*
X183490Y76551D01*
X183418Y76515D01*
X183309D01*
X183237Y76551D01*
X183164Y76624D01*
X183944Y77023D02*
X183871Y76987D01*
X183799Y76914D01*
X183763Y76805D01*
Y76733D01*
X183799Y76624D01*
X183871Y76551D01*
X183944Y76515D01*
X184053D01*
X184125Y76551D01*
X184198Y76624D01*
X184234Y76733D01*
Y76805D01*
X184198Y76914D01*
X184125Y76987D01*
X184053Y77023D01*
X183944D01*
X184510Y77277D02*
Y76660D01*
X184546Y76551D01*
X184619Y76515D01*
X184691D01*
X184401Y77023D02*
X184655D01*
X184873Y77277D02*
X184909Y77241D01*
X184945Y77277D01*
X184909Y77313D01*
X184873Y77277D01*
X184909Y77023D02*
Y76515D01*
X185515Y76914D02*
X185442Y76987D01*
X185370Y77023D01*
X185261D01*
X185188Y76987D01*
X185116Y76914D01*
X185079Y76805D01*
Y76733D01*
X185116Y76624D01*
X185188Y76551D01*
X185261Y76515D01*
X185370D01*
X185442Y76551D01*
X185515Y76624D01*
X186077Y76914D02*
X186041Y76987D01*
X185932Y77023D01*
X185823D01*
X185714Y76987D01*
X185678Y76914D01*
X185714Y76842D01*
X185787Y76805D01*
X185968Y76769D01*
X186041Y76733D01*
X186077Y76660D01*
Y76624D01*
X186041Y76551D01*
X185932Y76515D01*
X185823D01*
X185714Y76551D01*
X185678Y76624D01*
X187271Y77023D02*
Y76515D01*
Y76914D02*
X187198Y76987D01*
X187126Y77023D01*
X187017D01*
X186944Y76987D01*
X186872Y76914D01*
X186835Y76805D01*
Y76733D01*
X186872Y76624D01*
X186944Y76551D01*
X187017Y76515D01*
X187126D01*
X187198Y76551D01*
X187271Y76624D01*
X187474Y77023D02*
Y76515D01*
Y76878D02*
X187583Y76987D01*
X187655Y77023D01*
X187764D01*
X187837Y76987D01*
X187873Y76878D01*
Y76515D01*
X188508Y77277D02*
Y76515D01*
Y76914D02*
X188435Y76987D01*
X188363Y77023D01*
X188254D01*
X188181Y76987D01*
X188109Y76914D01*
X188072Y76805D01*
Y76733D01*
X188109Y76624D01*
X188181Y76551D01*
X188254Y76515D01*
X188363D01*
X188435Y76551D01*
X188508Y76624D01*
X189854Y77095D02*
X189817Y77168D01*
X189745Y77241D01*
X189672Y77277D01*
X189527D01*
X189455Y77241D01*
X189382Y77168D01*
X189346Y77095D01*
X189309Y76987D01*
Y76805D01*
X189346Y76696D01*
X189382Y76624D01*
X189455Y76551D01*
X189527Y76515D01*
X189672D01*
X189745Y76551D01*
X189817Y76624D01*
X189854Y76696D01*
X190249Y77023D02*
X190176Y76987D01*
X190104Y76914D01*
X190068Y76805D01*
Y76733D01*
X190104Y76624D01*
X190176Y76551D01*
X190249Y76515D01*
X190358D01*
X190430Y76551D01*
X190503Y76624D01*
X190539Y76733D01*
Y76805D01*
X190503Y76914D01*
X190430Y76987D01*
X190358Y77023D01*
X190249D01*
X190706D02*
Y76515D01*
Y76878D02*
X190815Y76987D01*
X190888Y77023D01*
X190996D01*
X191069Y76987D01*
X191105Y76878D01*
Y76515D01*
X191414Y77277D02*
Y76660D01*
X191450Y76551D01*
X191522Y76515D01*
X191595D01*
X191305Y77023D02*
X191559D01*
X191704D02*
Y76515D01*
Y76805D02*
X191740Y76914D01*
X191813Y76987D01*
X191885Y77023D01*
X191994D01*
X192244D02*
X192172Y76987D01*
X192099Y76914D01*
X192063Y76805D01*
Y76733D01*
X192099Y76624D01*
X192172Y76551D01*
X192244Y76515D01*
X192353D01*
X192426Y76551D01*
X192498Y76624D01*
X192535Y76733D01*
Y76805D01*
X192498Y76914D01*
X192426Y76987D01*
X192353Y77023D01*
X192244D01*
X192701Y77277D02*
Y76515D01*
X193260Y76914D02*
X193224Y76987D01*
X193115Y77023D01*
X193006D01*
X192897Y76987D01*
X192861Y76914D01*
X192897Y76842D01*
X192970Y76805D01*
X193151Y76769D01*
X193224Y76733D01*
X193260Y76660D01*
Y76624D01*
X193224Y76551D01*
X193115Y76515D01*
X193006D01*
X192897Y76551D01*
X192861Y76624D01*
X185072Y75853D02*
Y75091D01*
X185508D01*
X186026Y75599D02*
Y75091D01*
Y75490D02*
X185954Y75563D01*
X185881Y75599D01*
X185772D01*
X185700Y75563D01*
X185627Y75490D01*
X185591Y75381D01*
Y75309D01*
X185627Y75200D01*
X185700Y75127D01*
X185772Y75091D01*
X185881D01*
X185954Y75127D01*
X186026Y75200D01*
X186229Y75853D02*
Y75091D01*
Y75490D02*
X186302Y75563D01*
X186375Y75599D01*
X186483D01*
X186556Y75563D01*
X186629Y75490D01*
X186665Y75381D01*
Y75309D01*
X186629Y75200D01*
X186556Y75127D01*
X186483Y75091D01*
X186375D01*
X186302Y75127D01*
X186229Y75200D01*
X187681Y75998D02*
X187608Y75925D01*
X187535Y75817D01*
X187463Y75671D01*
X187427Y75490D01*
Y75345D01*
X187463Y75163D01*
X187535Y75018D01*
X187608Y74910D01*
X187681Y74837D01*
X187608Y75925D02*
X187535Y75780D01*
X187499Y75671D01*
X187463Y75490D01*
Y75345D01*
X187499Y75163D01*
X187535Y75055D01*
X187608Y74910D01*
X187826Y75853D02*
Y75091D01*
Y75853D02*
X188152D01*
X188261Y75817D01*
X188297Y75780D01*
X188334Y75708D01*
Y75635D01*
X188297Y75563D01*
X188261Y75526D01*
X188152Y75490D01*
X187826D01*
X188080D02*
X188334Y75091D01*
X189048Y75671D02*
X189012Y75744D01*
X188939Y75817D01*
X188867Y75853D01*
X188722D01*
X188649Y75817D01*
X188577Y75744D01*
X188540Y75671D01*
X188504Y75563D01*
Y75381D01*
X188540Y75272D01*
X188577Y75200D01*
X188649Y75127D01*
X188722Y75091D01*
X188867D01*
X188939Y75127D01*
X189012Y75200D01*
X189048Y75272D01*
X189262Y75853D02*
Y75091D01*
X189698D01*
X189781Y75998D02*
X189854Y75925D01*
X189926Y75817D01*
X189999Y75671D01*
X190035Y75490D01*
Y75345D01*
X189999Y75163D01*
X189926Y75018D01*
X189854Y74910D01*
X189781Y74837D01*
X189854Y75925D02*
X189926Y75780D01*
X189962Y75671D01*
X189999Y75490D01*
Y75345D01*
X189962Y75163D01*
X189926Y75055D01*
X189854Y74910D01*
X182574Y74320D02*
Y73558D01*
X182734Y74320D02*
Y73558D01*
Y74320D02*
X183024Y73558D01*
X183315Y74320D02*
X183024Y73558D01*
X183315Y74320D02*
Y73558D01*
X183786Y74320D02*
Y73558D01*
X183532Y74320D02*
X184040D01*
X184131D02*
Y73558D01*
Y74320D02*
X184421Y73558D01*
X184711Y74320D02*
X184421Y73558D01*
X184711Y74320D02*
Y73558D01*
X184929Y73884D02*
X185582D01*
X185807Y74320D02*
Y73558D01*
Y74320D02*
X186133D01*
X186242Y74284D01*
X186278Y74247D01*
X186315Y74175D01*
Y74102D01*
X186278Y74030D01*
X186242Y73993D01*
X186133Y73957D01*
X185807D01*
X186061D02*
X186315Y73558D01*
X186485Y74320D02*
Y73558D01*
X187189Y74138D02*
X187153Y74211D01*
X187080Y74284D01*
X187008Y74320D01*
X186863D01*
X186790Y74284D01*
X186717Y74211D01*
X186681Y74138D01*
X186645Y74030D01*
Y73848D01*
X186681Y73739D01*
X186717Y73667D01*
X186790Y73594D01*
X186863Y73558D01*
X187008D01*
X187080Y73594D01*
X187153Y73667D01*
X187189Y73739D01*
Y73848D01*
X187008D02*
X187189D01*
X187363Y74320D02*
Y73558D01*
X187871Y74320D02*
Y73558D01*
X187363Y73957D02*
X187871D01*
X188335Y74320D02*
Y73558D01*
X188081Y74320D02*
X188589D01*
X188680Y73884D02*
X189333D01*
X189558Y73921D02*
X189884D01*
X189993Y73957D01*
X190030Y73993D01*
X190066Y74066D01*
Y74175D01*
X190030Y74247D01*
X189993Y74284D01*
X189884Y74320D01*
X189558D01*
Y73558D01*
X190781Y74138D02*
X190744Y74211D01*
X190672Y74284D01*
X190599Y74320D01*
X190454D01*
X190381Y74284D01*
X190309Y74211D01*
X190273Y74138D01*
X190236Y74030D01*
Y73848D01*
X190273Y73739D01*
X190309Y73667D01*
X190381Y73594D01*
X190454Y73558D01*
X190599D01*
X190672Y73594D01*
X190744Y73667D01*
X190781Y73739D01*
X190995Y74320D02*
Y73558D01*
Y74320D02*
X191321D01*
X191430Y74284D01*
X191466Y74247D01*
X191502Y74175D01*
Y74102D01*
X191466Y74030D01*
X191430Y73993D01*
X191321Y73957D01*
X190995D02*
X191321D01*
X191430Y73921D01*
X191466Y73884D01*
X191502Y73812D01*
Y73703D01*
X191466Y73631D01*
X191430Y73594D01*
X191321Y73558D01*
X190995D01*
X191891Y74320D02*
X191782Y74284D01*
X191709Y74175D01*
X191673Y73993D01*
Y73884D01*
X191709Y73703D01*
X191782Y73594D01*
X191891Y73558D01*
X191963D01*
X192072Y73594D01*
X192145Y73703D01*
X192181Y73884D01*
Y73993D01*
X192145Y74175D01*
X192072Y74284D01*
X191963Y74320D01*
X191891D01*
X192351Y74175D02*
X192424Y74211D01*
X192533Y74320D01*
Y73558D01*
X183078Y62342D02*
Y61580D01*
Y62342D02*
X183404D01*
X183513Y62306D01*
X183550Y62269D01*
X183586Y62197D01*
Y62124D01*
X183550Y62052D01*
X183513Y62015D01*
X183404Y61979D01*
X183078D01*
X183332D02*
X183586Y61580D01*
X183622Y60763D02*
X183586Y60836D01*
X183513Y60909D01*
X183441Y60945D01*
X183296D01*
X183223Y60909D01*
X183151Y60836D01*
X183114Y60763D01*
X183078Y60655D01*
Y60473D01*
X183114Y60364D01*
X183151Y60292D01*
X183223Y60219D01*
X183296Y60183D01*
X183441D01*
X183513Y60219D01*
X183586Y60292D01*
X183622Y60364D01*
Y60473D01*
X183441D02*
X183622D01*
X183078Y65842D02*
Y65080D01*
Y65842D02*
X183404D01*
X183513Y65806D01*
X183550Y65769D01*
X183586Y65697D01*
Y65624D01*
X183550Y65552D01*
X183513Y65515D01*
X183404Y65479D01*
X183078D01*
X183332D02*
X183586Y65080D01*
X183622Y64263D02*
X183586Y64336D01*
X183513Y64409D01*
X183441Y64445D01*
X183296D01*
X183223Y64409D01*
X183151Y64336D01*
X183114Y64263D01*
X183078Y64155D01*
Y63973D01*
X183114Y63864D01*
X183151Y63792D01*
X183223Y63719D01*
X183296Y63683D01*
X183441D01*
X183513Y63719D01*
X183586Y63792D01*
X183622Y63864D01*
Y63973D01*
X183441D02*
X183622D01*
X183078Y69313D02*
Y68551D01*
Y69313D02*
X183404D01*
X183513Y69276D01*
X183550Y69240D01*
X183586Y69167D01*
Y69095D01*
X183550Y69022D01*
X183513Y68986D01*
X183404Y68950D01*
X183078D01*
X183332D02*
X183586Y68551D01*
X183622Y67734D02*
X183586Y67807D01*
X183513Y67879D01*
X183441Y67916D01*
X183296D01*
X183223Y67879D01*
X183151Y67807D01*
X183114Y67734D01*
X183078Y67625D01*
Y67444D01*
X183114Y67335D01*
X183151Y67263D01*
X183223Y67190D01*
X183296Y67154D01*
X183441D01*
X183513Y67190D01*
X183586Y67263D01*
X183622Y67335D01*
Y67444D01*
X183441D02*
X183622D01*
X183078Y72770D02*
Y72008D01*
Y72770D02*
X183404D01*
X183513Y72734D01*
X183550Y72697D01*
X183586Y72625D01*
Y72552D01*
X183550Y72480D01*
X183513Y72443D01*
X183404Y72407D01*
X183078D01*
X183332D02*
X183586Y72008D01*
X183622Y71192D02*
X183586Y71264D01*
X183513Y71337D01*
X183441Y71373D01*
X183296D01*
X183223Y71337D01*
X183151Y71264D01*
X183114Y71192D01*
X183078Y71083D01*
Y70901D01*
X183114Y70793D01*
X183151Y70720D01*
X183223Y70647D01*
X183296Y70611D01*
X183441D01*
X183513Y70647D01*
X183586Y70720D01*
X183622Y70793D01*
Y70901D01*
X183441D02*
X183622D01*
X191167Y61384D02*
X191094Y61348D01*
X190986Y61239D01*
Y62001D01*
X187686Y61239D02*
X187794Y61275D01*
X187831Y61348D01*
Y61421D01*
X187794Y61493D01*
X187722Y61529D01*
X187577Y61566D01*
X187468Y61602D01*
X187395Y61674D01*
X187359Y61747D01*
Y61856D01*
X187395Y61928D01*
X187432Y61965D01*
X187540Y62001D01*
X187686D01*
X187794Y61965D01*
X187831Y61928D01*
X187867Y61856D01*
Y61747D01*
X187831Y61674D01*
X187758Y61602D01*
X187649Y61566D01*
X187504Y61529D01*
X187432Y61493D01*
X187395Y61421D01*
Y61348D01*
X187432Y61275D01*
X187540Y61239D01*
X187686D01*
X184806Y61511D02*
X184443Y61221D01*
X184044D01*
X184806Y60931D02*
X184443Y61221D01*
X184806Y60470D02*
X184298Y60833D01*
Y60289D01*
X184806Y60470D02*
X184044D01*
X184806Y64718D02*
X184443Y64428D01*
X184044D01*
X184806Y64138D02*
X184443Y64428D01*
X184806Y63604D02*
Y63967D01*
X184479Y64003D01*
X184516Y63967D01*
X184552Y63858D01*
Y63750D01*
X184516Y63641D01*
X184443Y63568D01*
X184334Y63532D01*
X184262D01*
X184153Y63568D01*
X184080Y63641D01*
X184044Y63750D01*
Y63858D01*
X184080Y63967D01*
X184117Y64003D01*
X184189Y64040D01*
X184806Y68875D02*
X184443Y68585D01*
X184044D01*
X184806Y68295D02*
X184443Y68585D01*
X184697Y67761D02*
X184770Y67798D01*
X184806Y67906D01*
Y67979D01*
X184770Y68088D01*
X184661Y68160D01*
X184479Y68197D01*
X184298D01*
X184153Y68160D01*
X184080Y68088D01*
X184044Y67979D01*
Y67943D01*
X184080Y67834D01*
X184153Y67761D01*
X184262Y67725D01*
X184298D01*
X184407Y67761D01*
X184479Y67834D01*
X184516Y67943D01*
Y67979D01*
X184479Y68088D01*
X184407Y68160D01*
X184298Y68197D01*
X184806Y72293D02*
X184443Y72003D01*
X184044D01*
X184806Y71713D02*
X184443Y72003D01*
X184806Y71107D02*
X184044Y71470D01*
X184806Y71615D02*
Y71107D01*
X180982Y78588D02*
Y78007D01*
X180946Y77898D01*
X180910Y77862D01*
X180837Y77826D01*
X180765D01*
X180692Y77862D01*
X180656Y77898D01*
X180620Y78007D01*
Y78080D01*
X181251Y78588D02*
X181650D01*
X181432Y78297D01*
X181541D01*
X181614Y78261D01*
X181650Y78225D01*
X181686Y78116D01*
Y78043D01*
X181650Y77935D01*
X181577Y77862D01*
X181468Y77826D01*
X181360D01*
X181251Y77862D01*
X181214Y77898D01*
X181178Y77971D01*
X189140Y62018D02*
Y61437D01*
X189104Y61329D01*
X189068Y61292D01*
X188995Y61256D01*
X188923D01*
X188850Y61292D01*
X188814Y61329D01*
X188778Y61437D01*
Y61510D01*
X189373Y61837D02*
Y61873D01*
X189409Y61945D01*
X189445Y61982D01*
X189518Y62018D01*
X189663D01*
X189735Y61982D01*
X189772Y61945D01*
X189808Y61873D01*
Y61800D01*
X189772Y61728D01*
X189699Y61619D01*
X189336Y61256D01*
X189844D01*
M02*
