G04*
G04 #@! TF.GenerationSoftware,Altium Limited,Altium Designer,19.1.8 (144)*
G04*
G04 Layer_Color=16711935*
%FSLAX43Y43*%
%MOMM*%
G71*
G01*
G75*
%ADD13R,3.203X3.203*%
%ADD15R,1.553X1.553*%
%ADD16C,1.553*%
%ADD17C,0.803*%
%ADD30R,3.203X0.903*%
%ADD31R,0.503X1.003*%
%ADD32R,0.603X1.003*%
D13*
X8428Y9452D02*
D03*
X8428Y12928D02*
D03*
Y2500D02*
D03*
Y5976D02*
D03*
D15*
X10426Y18440D02*
D03*
D16*
Y16440D02*
D03*
X8426Y18440D02*
D03*
Y16440D02*
D03*
X6426Y18440D02*
D03*
Y16440D02*
D03*
X4426Y18440D02*
D03*
Y16440D02*
D03*
X2426Y18440D02*
D03*
Y16440D02*
D03*
D17*
X16525Y9275D02*
D03*
X20037Y6071D02*
D03*
X10956Y2500D02*
D03*
Y5976D02*
D03*
X10355Y9134D02*
D03*
Y11500D02*
D03*
X22835Y3607D02*
D03*
X21529Y5979D02*
D03*
X20250Y3200D02*
D03*
X23698Y7696D02*
D03*
X15977Y3251D02*
D03*
X21768Y1930D02*
D03*
X8428Y14855D02*
D03*
D30*
X13508Y8752D02*
D03*
Y10152D02*
D03*
X13508Y13628D02*
D03*
Y12228D02*
D03*
Y1800D02*
D03*
Y3200D02*
D03*
Y5276D02*
D03*
Y6676D02*
D03*
D31*
X19750Y4400D02*
D03*
X20250D02*
D03*
X20750D02*
D03*
X21250D02*
D03*
X21750D02*
D03*
X22250D02*
D03*
X22750D02*
D03*
X23250D02*
D03*
D32*
X24250Y6900D02*
D03*
X18750D02*
D03*
M02*
