G04*
G04 #@! TF.GenerationSoftware,Altium Limited,Altium Designer,19.1.8 (144)*
G04*
G04 Layer_Color=16711935*
%FSLAX43Y43*%
%MOMM*%
G71*
G01*
G75*
%ADD40C,0.150*%
D40*
X3000Y14500D02*
X4000Y14500D01*
X4098D01*
X4292Y14462D01*
X4474Y14386D01*
X4637Y14277D01*
X4777Y14137D01*
X4886Y13974D01*
X4962Y13792D01*
X5000Y13598D01*
X5000Y13500D02*
X5000Y13598D01*
X5000Y13500D02*
X5000Y13500D01*
X5000Y2500D02*
X5000Y13500D01*
X5000Y2500D02*
X5012Y2414D01*
X5003Y2240D02*
X5012Y2414D01*
X4960Y2071D02*
X5003Y2240D01*
X4884Y1914D02*
X4960Y2071D01*
X4780Y1775D02*
X4884Y1914D01*
X4650Y1659D02*
X4780Y1775D01*
X4500Y1570D02*
X4650Y1659D01*
X4336Y1512D02*
X4500Y1570D01*
X4250Y1500D02*
X4336Y1512D01*
X4250Y1500D02*
X4250Y1500D01*
X3000Y1500D02*
X4250Y1500D01*
X2901Y1500D02*
X3000Y1500D01*
X2708Y1538D02*
X2901Y1500D01*
X2526Y1614D02*
X2708Y1538D01*
X2362Y1723D02*
X2526Y1614D01*
X2223Y1862D02*
X2362Y1723D01*
X2114Y2026D02*
X2223Y1862D01*
X2038Y2208D02*
X2114Y2026D01*
X2000Y2401D02*
X2038Y2208D01*
X2000Y2401D02*
X2000Y2500D01*
Y2500D01*
Y13500D01*
Y13598D01*
X2038Y13792D01*
X2114Y13974D01*
X2223Y14137D01*
X2363Y14277D01*
X2526Y14386D01*
X2708Y14462D01*
X2901Y14500D01*
X3000Y14500D01*
X3000Y14500D01*
X27000Y-0D02*
Y21000D01*
X0D02*
X27000D01*
X0Y0D02*
Y21000D01*
Y0D02*
X27000Y-0D01*
M02*
