G04*
G04 #@! TF.GenerationSoftware,Altium Limited,Altium Designer,19.1.8 (144)*
G04*
G04 Layer_Physical_Order=1*
G04 Layer_Color=255*
%FSLAX43Y43*%
%MOMM*%
G71*
G01*
G75*
%ADD11R,3.000X3.000*%
%ADD12R,3.000X0.700*%
%ADD18C,0.254*%
%ADD19R,1.350X1.350*%
%ADD20C,1.350*%
%ADD21C,0.600*%
D11*
X8428Y11500D02*
D03*
Y6810D02*
D03*
Y2620D02*
D03*
D12*
X13508Y12770D02*
D03*
Y11500D02*
D03*
Y10230D02*
D03*
Y8080D02*
D03*
Y6810D02*
D03*
Y5540D02*
D03*
Y3890D02*
D03*
Y2620D02*
D03*
Y1350D02*
D03*
D18*
X23314Y8080D02*
X23698Y7696D01*
X13508Y8080D02*
X23314D01*
X23698Y7696D02*
X23698D01*
X11176Y9881D02*
X11782Y9275D01*
X16525D01*
X15291Y5540D02*
X16431Y6680D01*
X15367Y7137D02*
X22416D01*
X22758Y6794D01*
X13508Y6810D02*
X15040D01*
X16431Y6680D02*
X20828D01*
X15040Y6810D02*
X15367Y7137D01*
X20828Y6680D02*
X21529Y5979D01*
X17856Y3890D02*
X20037Y6071D01*
X10211Y9703D02*
X10389Y9881D01*
X6579Y9703D02*
X10211D01*
X10389Y9881D02*
X11176D01*
X12517Y12770D02*
Y19271D01*
X12370Y11500D02*
Y12116D01*
X6426Y9855D02*
X6579Y9703D01*
X6426Y9855D02*
Y16440D01*
X21848Y2620D02*
X22835Y3607D01*
X13508Y2620D02*
X21848D01*
X13508Y5540D02*
X15291D01*
X22758Y4697D02*
Y6794D01*
X21262Y3200D02*
X22758Y4697D01*
X20250Y3200D02*
X21262D01*
X12370Y11500D02*
X13508D01*
X12344Y12141D02*
X12370Y12116D01*
X11756Y12141D02*
X12344D01*
X11731Y12167D02*
X11756Y12141D01*
X11731Y12167D02*
Y18978D01*
X11303Y19406D02*
X11731Y18978D01*
X7811Y19406D02*
X11303D01*
X7468Y19063D02*
X7811Y19406D01*
X7468Y18034D02*
Y19063D01*
X6883Y17450D02*
X7468Y18034D01*
X5417Y17450D02*
X6883D01*
X4426Y18440D02*
X5417Y17450D01*
X11659Y3251D02*
X15977D01*
X11633Y3226D02*
X11659Y3251D01*
X11633Y2159D02*
Y3226D01*
X11303Y1829D02*
X11633Y2159D01*
X9219Y1829D02*
X11303D01*
X8428Y2620D02*
X9219Y1829D01*
X13508Y1350D02*
X21187D01*
X21768Y1930D01*
X12517Y12770D02*
X13508D01*
X11949Y19839D02*
X12517Y19271D01*
X7493Y19839D02*
X11949D01*
X7028Y19374D02*
X7493Y19839D01*
X7028Y19042D02*
Y19374D01*
X6426Y18440D02*
X7028Y19042D01*
X8426Y18440D02*
X9398Y17469D01*
Y15730D02*
Y17469D01*
Y15730D02*
X11327Y13801D01*
Y10638D02*
Y13801D01*
Y10638D02*
X11735Y10230D01*
X13508D01*
Y3890D02*
X17856D01*
X8428Y2620D02*
Y6810D01*
Y11500D02*
X10355D01*
D19*
X10426Y18440D02*
D03*
D20*
Y16440D02*
D03*
X8426Y18440D02*
D03*
Y16440D02*
D03*
X6426Y18440D02*
D03*
Y16440D02*
D03*
X4426Y18440D02*
D03*
Y16440D02*
D03*
X2426Y18440D02*
D03*
Y16440D02*
D03*
D21*
X16525Y9275D02*
D03*
X20037Y6071D02*
D03*
X10956Y2500D02*
D03*
Y5976D02*
D03*
X10355Y9134D02*
D03*
Y11500D02*
D03*
X22835Y3607D02*
D03*
X21529Y5979D02*
D03*
X20250Y3200D02*
D03*
X23698Y7696D02*
D03*
X15977Y3251D02*
D03*
X21768Y1930D02*
D03*
X8428Y14855D02*
D03*
M02*
