M48
;Layer_Color=9474304
;FILE_FORMAT=4:3
METRIC,LZ
;TYPE=PLATED
T1F00S00C0.300
T2F00S00C0.700
%
T01
X0010956Y00025
Y0005976
X0010355Y0009134
Y00115
X0008428Y0014855
X0016525Y0009275
X0015977Y0003251
X002025Y00032
X0021768Y000193
X0022835Y0003607
X0021529Y0005979
X0020037Y0006071
X0023698Y0007696
T02
X0002426Y001644
X0004426
X0006426
X0008426
X0010426
Y001844
X0008426
X0006426
X0004426
X0002426
M30
