G04*
G04 #@! TF.GenerationSoftware,Altium Limited,Altium Designer,19.1.8 (144)*
G04*
G04 Layer_Color=32896*
%FSLAX43Y43*%
%MOMM*%
G71*
G01*
G75*
%ADD10C,0.152*%
%ADD33C,0.200*%
D10*
X25493Y18476D02*
Y17714D01*
Y18476D02*
X25167D01*
X25058Y18440D01*
X25022Y18403D01*
X24985Y18331D01*
Y18258D01*
X25022Y18186D01*
X25058Y18149D01*
X25167Y18113D01*
X25493D01*
X25239D02*
X24985Y17714D01*
X24633Y18222D02*
X24706Y18186D01*
X24778Y18113D01*
X24815Y18004D01*
Y17932D01*
X24778Y17823D01*
X24706Y17750D01*
X24633Y17714D01*
X24524D01*
X24452Y17750D01*
X24379Y17823D01*
X24343Y17932D01*
Y18004D01*
X24379Y18113D01*
X24452Y18186D01*
X24524Y18222D01*
X24633D01*
X24176Y18476D02*
Y17714D01*
Y18113D02*
X24104Y18186D01*
X24031Y18222D01*
X23922D01*
X23850Y18186D01*
X23777Y18113D01*
X23741Y18004D01*
Y17932D01*
X23777Y17823D01*
X23850Y17750D01*
X23922Y17714D01*
X24031D01*
X24104Y17750D01*
X24176Y17823D01*
X23396Y18222D02*
X23469Y18186D01*
X23541Y18113D01*
X23578Y18004D01*
Y17932D01*
X23541Y17823D01*
X23469Y17750D01*
X23396Y17714D01*
X23287D01*
X23215Y17750D01*
X23142Y17823D01*
X23106Y17932D01*
Y18004D01*
X23142Y18113D01*
X23215Y18186D01*
X23287Y18222D01*
X23396D01*
X22830Y18476D02*
Y17859D01*
X22794Y17750D01*
X22721Y17714D01*
X22649D01*
X22939Y18222D02*
X22685D01*
X22468Y18476D02*
X22431Y18440D01*
X22395Y18476D01*
X22431Y18512D01*
X22468Y18476D01*
X22431Y18222D02*
Y17714D01*
X21825Y18113D02*
X21898Y18186D01*
X21971Y18222D01*
X22079D01*
X22152Y18186D01*
X22224Y18113D01*
X22261Y18004D01*
Y17932D01*
X22224Y17823D01*
X22152Y17750D01*
X22079Y17714D01*
X21971D01*
X21898Y17750D01*
X21825Y17823D01*
X21263Y18113D02*
X21299Y18186D01*
X21408Y18222D01*
X21517D01*
X21626Y18186D01*
X21662Y18113D01*
X21626Y18041D01*
X21553Y18004D01*
X21372Y17968D01*
X21299Y17932D01*
X21263Y17859D01*
Y17823D01*
X21299Y17750D01*
X21408Y17714D01*
X21517D01*
X21626Y17750D01*
X21662Y17823D01*
X20070Y18222D02*
Y17714D01*
Y18113D02*
X20142Y18186D01*
X20215Y18222D01*
X20324D01*
X20396Y18186D01*
X20469Y18113D01*
X20505Y18004D01*
Y17932D01*
X20469Y17823D01*
X20396Y17750D01*
X20324Y17714D01*
X20215D01*
X20142Y17750D01*
X20070Y17823D01*
X19866Y18222D02*
Y17714D01*
Y18077D02*
X19758Y18186D01*
X19685Y18222D01*
X19576D01*
X19504Y18186D01*
X19467Y18077D01*
Y17714D01*
X18832Y18476D02*
Y17714D01*
Y18113D02*
X18905Y18186D01*
X18978Y18222D01*
X19086D01*
X19159Y18186D01*
X19232Y18113D01*
X19268Y18004D01*
Y17932D01*
X19232Y17823D01*
X19159Y17750D01*
X19086Y17714D01*
X18978D01*
X18905Y17750D01*
X18832Y17823D01*
X17487Y18295D02*
X17523Y18367D01*
X17595Y18440D01*
X17668Y18476D01*
X17813D01*
X17886Y18440D01*
X17958Y18367D01*
X17994Y18295D01*
X18031Y18186D01*
Y18004D01*
X17994Y17895D01*
X17958Y17823D01*
X17886Y17750D01*
X17813Y17714D01*
X17668D01*
X17595Y17750D01*
X17523Y17823D01*
X17487Y17895D01*
X17091Y18222D02*
X17164Y18186D01*
X17236Y18113D01*
X17273Y18004D01*
Y17932D01*
X17236Y17823D01*
X17164Y17750D01*
X17091Y17714D01*
X16982D01*
X16910Y17750D01*
X16837Y17823D01*
X16801Y17932D01*
Y18004D01*
X16837Y18113D01*
X16910Y18186D01*
X16982Y18222D01*
X17091D01*
X16634D02*
Y17714D01*
Y18077D02*
X16525Y18186D01*
X16453Y18222D01*
X16344D01*
X16271Y18186D01*
X16235Y18077D01*
Y17714D01*
X15927Y18476D02*
Y17859D01*
X15890Y17750D01*
X15818Y17714D01*
X15745D01*
X16035Y18222D02*
X15782D01*
X15636D02*
Y17714D01*
Y18004D02*
X15600Y18113D01*
X15528Y18186D01*
X15455Y18222D01*
X15346D01*
X15096D02*
X15168Y18186D01*
X15241Y18113D01*
X15277Y18004D01*
Y17932D01*
X15241Y17823D01*
X15168Y17750D01*
X15096Y17714D01*
X14987D01*
X14914Y17750D01*
X14842Y17823D01*
X14806Y17932D01*
Y18004D01*
X14842Y18113D01*
X14914Y18186D01*
X14987Y18222D01*
X15096D01*
X14639Y18476D02*
Y17714D01*
X14080Y18113D02*
X14116Y18186D01*
X14225Y18222D01*
X14334D01*
X14443Y18186D01*
X14479Y18113D01*
X14443Y18041D01*
X14370Y18004D01*
X14189Y17968D01*
X14116Y17932D01*
X14080Y17859D01*
Y17823D01*
X14116Y17750D01*
X14225Y17714D01*
X14334D01*
X14443Y17750D01*
X14479Y17823D01*
X22268Y17052D02*
Y16290D01*
X21833D01*
X21314Y16798D02*
Y16290D01*
Y16689D02*
X21386Y16762D01*
X21459Y16798D01*
X21568D01*
X21640Y16762D01*
X21713Y16689D01*
X21749Y16580D01*
Y16508D01*
X21713Y16399D01*
X21640Y16326D01*
X21568Y16290D01*
X21459D01*
X21386Y16326D01*
X21314Y16399D01*
X21111Y17052D02*
Y16290D01*
Y16689D02*
X21038Y16762D01*
X20966Y16798D01*
X20857D01*
X20784Y16762D01*
X20712Y16689D01*
X20675Y16580D01*
Y16508D01*
X20712Y16399D01*
X20784Y16326D01*
X20857Y16290D01*
X20966D01*
X21038Y16326D01*
X21111Y16399D01*
X19660Y17197D02*
X19732Y17124D01*
X19805Y17016D01*
X19877Y16870D01*
X19914Y16689D01*
Y16544D01*
X19877Y16362D01*
X19805Y16217D01*
X19732Y16109D01*
X19660Y16036D01*
X19732Y17124D02*
X19805Y16979D01*
X19841Y16870D01*
X19877Y16689D01*
Y16544D01*
X19841Y16362D01*
X19805Y16254D01*
X19732Y16109D01*
X19515Y17052D02*
Y16290D01*
Y17052D02*
X19188D01*
X19079Y17016D01*
X19043Y16979D01*
X19007Y16907D01*
Y16834D01*
X19043Y16762D01*
X19079Y16725D01*
X19188Y16689D01*
X19515D01*
X19261D02*
X19007Y16290D01*
X18292Y16870D02*
X18328Y16943D01*
X18401Y17016D01*
X18473Y17052D01*
X18618D01*
X18691Y17016D01*
X18764Y16943D01*
X18800Y16870D01*
X18836Y16762D01*
Y16580D01*
X18800Y16471D01*
X18764Y16399D01*
X18691Y16326D01*
X18618Y16290D01*
X18473D01*
X18401Y16326D01*
X18328Y16399D01*
X18292Y16471D01*
X18078Y17052D02*
Y16290D01*
X17643D01*
X17559Y17197D02*
X17487Y17124D01*
X17414Y17016D01*
X17341Y16870D01*
X17305Y16689D01*
Y16544D01*
X17341Y16362D01*
X17414Y16217D01*
X17487Y16109D01*
X17559Y16036D01*
X17487Y17124D02*
X17414Y16979D01*
X17378Y16870D01*
X17341Y16689D01*
Y16544D01*
X17378Y16362D01*
X17414Y16254D01*
X17487Y16109D01*
X24630Y15519D02*
Y14757D01*
X24470Y15519D02*
Y14757D01*
Y15519D02*
X24180Y14757D01*
X23890Y15519D02*
X24180Y14757D01*
X23890Y15519D02*
Y14757D01*
X23418Y15519D02*
Y14757D01*
X23672Y15519D02*
X23164D01*
X23073D02*
Y14757D01*
Y15519D02*
X22783Y14757D01*
X22493Y15519D02*
X22783Y14757D01*
X22493Y15519D02*
Y14757D01*
X22275Y15083D02*
X21622D01*
X21397Y15519D02*
Y14757D01*
X20962D01*
X20407Y15519D02*
X20879D01*
Y14757D01*
X20407D01*
X20879Y15156D02*
X20588D01*
X20280Y15519D02*
Y14757D01*
Y15519D02*
X19808D01*
X20280Y15156D02*
X19990D01*
X19467Y15519D02*
Y14757D01*
X19721Y15519D02*
X19213D01*
X19123Y15083D02*
X18470D01*
X18245Y15120D02*
X17918D01*
X17809Y15156D01*
X17773Y15192D01*
X17737Y15265D01*
Y15374D01*
X17773Y15446D01*
X17809Y15483D01*
X17918Y15519D01*
X18245D01*
Y14757D01*
X17022Y15337D02*
X17059Y15410D01*
X17131Y15483D01*
X17204Y15519D01*
X17349D01*
X17421Y15483D01*
X17494Y15410D01*
X17530Y15337D01*
X17566Y15229D01*
Y15047D01*
X17530Y14938D01*
X17494Y14866D01*
X17421Y14793D01*
X17349Y14757D01*
X17204D01*
X17131Y14793D01*
X17059Y14866D01*
X17022Y14938D01*
X16808Y15519D02*
Y14757D01*
Y15519D02*
X16482D01*
X16373Y15483D01*
X16337Y15446D01*
X16300Y15374D01*
Y15301D01*
X16337Y15229D01*
X16373Y15192D01*
X16482Y15156D01*
X16808D02*
X16482D01*
X16373Y15120D01*
X16337Y15083D01*
X16300Y15011D01*
Y14902D01*
X16337Y14830D01*
X16373Y14793D01*
X16482Y14757D01*
X16808D01*
X15912Y15519D02*
X16021Y15483D01*
X16094Y15374D01*
X16130Y15192D01*
Y15083D01*
X16094Y14902D01*
X16021Y14793D01*
X15912Y14757D01*
X15840D01*
X15731Y14793D01*
X15658Y14902D01*
X15622Y15083D01*
Y15192D01*
X15658Y15374D01*
X15731Y15483D01*
X15840Y15519D01*
X15912D01*
X15415Y15337D02*
Y15374D01*
X15379Y15446D01*
X15343Y15483D01*
X15270Y15519D01*
X15125D01*
X15052Y15483D01*
X15016Y15446D01*
X14980Y15374D01*
Y15301D01*
X15016Y15229D01*
X15089Y15120D01*
X15451Y14757D01*
X14943D01*
X15855Y9990D02*
X15819Y9917D01*
X15746Y9844D01*
X15674Y9808D01*
X15529D01*
X15456Y9844D01*
X15384Y9917D01*
X15347Y9990D01*
X15311Y10098D01*
Y10280D01*
X15347Y10389D01*
X15384Y10461D01*
X15456Y10534D01*
X15529Y10570D01*
X15674D01*
X15746Y10534D01*
X15819Y10461D01*
X15855Y10389D01*
Y10280D01*
X15674D02*
X15855D01*
X15311Y8411D02*
Y9173D01*
Y8411D02*
X15638D01*
X15746Y8447D01*
X15783Y8484D01*
X15819Y8556D01*
Y8629D01*
X15783Y8701D01*
X15746Y8738D01*
X15638Y8774D01*
X15311D01*
X15565D02*
X15819Y9173D01*
X15855Y13466D02*
X15819Y13393D01*
X15746Y13320D01*
X15674Y13284D01*
X15529D01*
X15456Y13320D01*
X15384Y13393D01*
X15347Y13466D01*
X15311Y13574D01*
Y13756D01*
X15347Y13865D01*
X15384Y13937D01*
X15456Y14010D01*
X15529Y14046D01*
X15674D01*
X15746Y14010D01*
X15819Y13937D01*
X15855Y13865D01*
Y13756D01*
X15674D02*
X15855D01*
X15311Y11887D02*
Y12649D01*
Y11887D02*
X15638D01*
X15746Y11923D01*
X15783Y11960D01*
X15819Y12032D01*
Y12105D01*
X15783Y12177D01*
X15746Y12214D01*
X15638Y12250D01*
X15311D01*
X15565D02*
X15819Y12649D01*
X19600Y2583D02*
X19673Y2547D01*
X19781Y2438D01*
Y3200D01*
X23081Y2438D02*
X22973Y2474D01*
X22936Y2547D01*
Y2620D01*
X22973Y2692D01*
X23045Y2728D01*
X23190Y2765D01*
X23299Y2801D01*
X23372Y2874D01*
X23408Y2946D01*
Y3055D01*
X23372Y3127D01*
X23335Y3164D01*
X23227Y3200D01*
X23081D01*
X22973Y3164D01*
X22936Y3127D01*
X22900Y3055D01*
Y2946D01*
X22936Y2874D01*
X23009Y2801D01*
X23118Y2765D01*
X23263Y2728D01*
X23335Y2692D01*
X23372Y2620D01*
Y2547D01*
X23335Y2474D01*
X23227Y2438D01*
X23081D01*
X15311Y1459D02*
Y2221D01*
Y1459D02*
X15638D01*
X15746Y1495D01*
X15783Y1532D01*
X15819Y1604D01*
Y1677D01*
X15783Y1749D01*
X15746Y1786D01*
X15638Y1822D01*
X15311D01*
X15565D02*
X15819Y2221D01*
X15855Y3038D02*
X15819Y2965D01*
X15746Y2892D01*
X15674Y2856D01*
X15529D01*
X15456Y2892D01*
X15384Y2965D01*
X15347Y3038D01*
X15311Y3146D01*
Y3328D01*
X15347Y3437D01*
X15384Y3509D01*
X15456Y3582D01*
X15529Y3618D01*
X15674D01*
X15746Y3582D01*
X15819Y3509D01*
X15855Y3437D01*
Y3328D01*
X15674D02*
X15855D01*
X15311Y4935D02*
Y5697D01*
Y4935D02*
X15638D01*
X15746Y4971D01*
X15783Y5008D01*
X15819Y5080D01*
Y5153D01*
X15783Y5225D01*
X15746Y5262D01*
X15638Y5298D01*
X15311D01*
X15565D02*
X15819Y5697D01*
X15855Y6514D02*
X15819Y6441D01*
X15746Y6368D01*
X15674Y6332D01*
X15529D01*
X15456Y6368D01*
X15384Y6441D01*
X15347Y6514D01*
X15311Y6622D01*
Y6804D01*
X15347Y6913D01*
X15384Y6985D01*
X15456Y7058D01*
X15529Y7094D01*
X15674D01*
X15746Y7058D01*
X15819Y6985D01*
X15855Y6913D01*
Y6804D01*
X15674D02*
X15855D01*
X25670Y7456D02*
Y6875D01*
X25707Y6767D01*
X25743Y6730D01*
X25816Y6694D01*
X25888D01*
X25961Y6730D01*
X25997Y6767D01*
X26033Y6875D01*
Y6948D01*
X25438Y7275D02*
Y7311D01*
X25402Y7383D01*
X25366Y7420D01*
X25293Y7456D01*
X25148D01*
X25076Y7420D01*
X25039Y7383D01*
X25003Y7311D01*
Y7238D01*
X25039Y7166D01*
X25112Y7057D01*
X25475Y6694D01*
X24967D01*
X17081Y964D02*
X16718Y1254D01*
X16319D01*
X17081Y1544D02*
X16718Y1254D01*
X17081Y2005D02*
X16573Y1642D01*
Y2186D01*
X17081Y2005D02*
X16319D01*
X17081Y5407D02*
X16718Y5697D01*
X16319D01*
X17081Y5987D02*
X16718Y5697D01*
X17081Y6521D02*
Y6158D01*
X16754Y6122D01*
X16791Y6158D01*
X16827Y6267D01*
Y6375D01*
X16791Y6484D01*
X16718Y6557D01*
X16609Y6593D01*
X16537D01*
X16428Y6557D01*
X16355Y6484D01*
X16319Y6375D01*
Y6267D01*
X16355Y6158D01*
X16392Y6122D01*
X16464Y6085D01*
X17081Y8896D02*
X16718Y9186D01*
X16319D01*
X17081Y9476D02*
X16718Y9186D01*
X16972Y10010D02*
X17045Y9973D01*
X17081Y9865D01*
Y9792D01*
X17045Y9683D01*
X16936Y9611D01*
X16754Y9574D01*
X16573D01*
X16428Y9611D01*
X16355Y9683D01*
X16319Y9792D01*
Y9828D01*
X16355Y9937D01*
X16428Y10010D01*
X16537Y10046D01*
X16573D01*
X16682Y10010D01*
X16754Y9937D01*
X16791Y9828D01*
Y9792D01*
X16754Y9683D01*
X16682Y9611D01*
X16573Y9574D01*
X17081Y12282D02*
X16718Y12572D01*
X16319D01*
X17081Y12862D02*
X16718Y12572D01*
X17081Y13468D02*
X16319Y13105D01*
X17081Y12960D02*
Y13468D01*
X13533Y15816D02*
Y15235D01*
X13569Y15126D01*
X13605Y15090D01*
X13678Y15054D01*
X13750D01*
X13823Y15090D01*
X13859Y15126D01*
X13895Y15235D01*
Y15308D01*
X13264Y15816D02*
X12865D01*
X13083Y15526D01*
X12974D01*
X12901Y15489D01*
X12865Y15453D01*
X12829Y15344D01*
Y15272D01*
X12865Y15163D01*
X12938Y15090D01*
X13046Y15054D01*
X13155D01*
X13264Y15090D01*
X13300Y15126D01*
X13337Y15199D01*
D33*
X476Y19940D02*
X12376D01*
Y14940D02*
Y19940D01*
X476Y14940D02*
X12376D01*
X476D02*
Y19956D01*
X24575Y4450D02*
Y6200D01*
X23800Y4450D02*
X24575D01*
X23800Y4075D02*
Y4450D01*
Y4075D02*
X24250D01*
Y3575D02*
Y4075D01*
X18750Y3575D02*
X24250D01*
X18750D02*
Y4075D01*
X19200D01*
Y4450D01*
X18425D02*
X19200D01*
X18425D02*
Y6200D01*
X19250Y7425D02*
X23750D01*
M02*
