G04*
G04 #@! TF.GenerationSoftware,Altium Limited,Altium Designer,19.1.8 (144)*
G04*
G04 Layer_Color=32896*
%FSLAX43Y43*%
%MOMM*%
G71*
G01*
G75*
%ADD18C,0.254*%
%ADD34C,0.152*%
D18*
X5000Y29524D02*
X6524Y30032D01*
X5000Y29524D02*
X6524Y29016D01*
X-1524D02*
X0Y29524D01*
X-1524Y30032D02*
X0Y29524D01*
X5000D02*
X7540D01*
X-2540D02*
X0D01*
Y21254D02*
Y29778D01*
X5000Y8254D02*
Y29778D01*
X2000Y24674D02*
X3524Y25182D01*
X2000Y24674D02*
X3524Y24166D01*
X-1524D02*
X0Y24674D01*
X-1524Y25182D02*
X0Y24674D01*
X2000D02*
X4540D01*
X-2540D02*
X0D01*
Y21254D02*
Y24928D01*
X2000Y8254D02*
Y24928D01*
X-14667Y21000D02*
X-14159Y19476D01*
X-15175D02*
X-14667Y21000D01*
X-15175Y16024D02*
X-14667Y14500D01*
X-14159Y16024D01*
X-14667Y17750D02*
Y21000D01*
Y14500D02*
Y17750D01*
X-14921Y21000D02*
X-254D01*
X-14921Y14500D02*
X3246D01*
X-22317Y21000D02*
X-21809Y19476D01*
X-22825D02*
X-22317Y21000D01*
X-22825Y3024D02*
X-22317Y1500D01*
X-21809Y3024D01*
X-22317Y13913D02*
Y21000D01*
Y1500D02*
Y7774D01*
X-22571Y21000D02*
X-254D01*
X-22571Y1500D02*
X3371D01*
X0Y34249D02*
X1524Y34757D01*
X0Y34249D02*
X1524Y33741D01*
X25476D02*
X27000Y34249D01*
X25476Y34757D02*
X27000Y34249D01*
X0D02*
X9905D01*
X16283D02*
X27000D01*
X0Y21254D02*
Y34503D01*
X27000Y21254D02*
Y34503D01*
X-28392Y21000D02*
X-27884Y19476D01*
X-28900D02*
X-28392Y21000D01*
X-28900Y1524D02*
X-28392Y0D01*
X-27884Y1524D01*
X-28392Y13163D02*
Y21000D01*
Y0D02*
Y7024D01*
X-28646Y21000D02*
X-254D01*
X-28646Y0D02*
X-254D01*
D34*
X-6436Y30133D02*
X-7162D01*
X-7234Y29480D01*
X-7162Y29553D01*
X-6944Y29626D01*
X-6727D01*
X-6509Y29553D01*
X-6364Y29408D01*
X-6291Y29190D01*
Y29045D01*
X-6364Y28827D01*
X-6509Y28682D01*
X-6727Y28610D01*
X-6944D01*
X-7162Y28682D01*
X-7234Y28755D01*
X-7307Y28900D01*
X-5878Y28755D02*
X-5950Y28682D01*
X-5878Y28610D01*
X-5805Y28682D01*
X-5878Y28755D01*
X-5036Y30133D02*
X-5254Y30061D01*
X-5399Y29843D01*
X-5471Y29480D01*
Y29263D01*
X-5399Y28900D01*
X-5254Y28682D01*
X-5036Y28610D01*
X-4891D01*
X-4673Y28682D01*
X-4528Y28900D01*
X-4456Y29263D01*
Y29480D01*
X-4528Y29843D01*
X-4673Y30061D01*
X-4891Y30133D01*
X-5036D01*
X-3679D02*
X-3897Y30061D01*
X-4042Y29843D01*
X-4115Y29480D01*
Y29263D01*
X-4042Y28900D01*
X-3897Y28682D01*
X-3679Y28610D01*
X-3534D01*
X-3316Y28682D01*
X-3171Y28900D01*
X-3099Y29263D01*
Y29480D01*
X-3171Y29843D01*
X-3316Y30061D01*
X-3534Y30133D01*
X-3679D01*
X-7234Y24921D02*
Y24993D01*
X-7162Y25138D01*
X-7089Y25211D01*
X-6944Y25283D01*
X-6654D01*
X-6509Y25211D01*
X-6436Y25138D01*
X-6364Y24993D01*
Y24848D01*
X-6436Y24703D01*
X-6581Y24485D01*
X-7307Y23760D01*
X-6291D01*
X-5878Y23905D02*
X-5950Y23832D01*
X-5878Y23760D01*
X-5805Y23832D01*
X-5878Y23905D01*
X-5036Y25283D02*
X-5254Y25211D01*
X-5399Y24993D01*
X-5471Y24630D01*
Y24413D01*
X-5399Y24050D01*
X-5254Y23832D01*
X-5036Y23760D01*
X-4891D01*
X-4673Y23832D01*
X-4528Y24050D01*
X-4456Y24413D01*
Y24630D01*
X-4528Y24993D01*
X-4673Y25211D01*
X-4891Y25283D01*
X-5036D01*
X-3679D02*
X-3897Y25211D01*
X-4042Y24993D01*
X-4115Y24630D01*
Y24413D01*
X-4042Y24050D01*
X-3897Y23832D01*
X-3679Y23760D01*
X-3534D01*
X-3316Y23832D01*
X-3171Y24050D01*
X-3099Y24413D01*
Y24630D01*
X-3171Y24993D01*
X-3316Y25211D01*
X-3534Y25283D01*
X-3679D01*
X-15059Y10683D02*
X-15204Y10611D01*
X-15276Y10393D01*
Y10248D01*
X-15204Y10030D01*
X-14986Y9885D01*
X-14623Y9813D01*
X-14261D01*
X-13970Y9885D01*
X-13825Y10030D01*
X-13753Y10248D01*
Y10321D01*
X-13825Y10538D01*
X-13970Y10683D01*
X-14188Y10756D01*
X-14261D01*
X-14478Y10683D01*
X-14623Y10538D01*
X-14696Y10321D01*
Y10248D01*
X-14623Y10030D01*
X-14478Y9885D01*
X-14261Y9813D01*
X-13898Y11162D02*
X-13825Y11090D01*
X-13753Y11162D01*
X-13825Y11235D01*
X-13898Y11162D01*
X-15276Y12439D02*
Y11714D01*
X-14623Y11641D01*
X-14696Y11714D01*
X-14769Y11931D01*
Y12149D01*
X-14696Y12367D01*
X-14551Y12512D01*
X-14333Y12584D01*
X-14188D01*
X-13970Y12512D01*
X-13825Y12367D01*
X-13753Y12149D01*
Y11931D01*
X-13825Y11714D01*
X-13898Y11641D01*
X-14043Y11569D01*
X-15276Y13361D02*
X-15204Y13143D01*
X-14986Y12998D01*
X-14623Y12925D01*
X-14406D01*
X-14043Y12998D01*
X-13825Y13143D01*
X-13753Y13361D01*
Y13506D01*
X-13825Y13724D01*
X-14043Y13869D01*
X-14406Y13941D01*
X-14623D01*
X-14986Y13869D01*
X-15204Y13724D01*
X-15276Y13506D01*
Y13361D01*
X-22636Y8181D02*
X-22709Y8326D01*
X-22926Y8544D01*
X-21403D01*
X-22419Y10241D02*
X-22201Y10169D01*
X-22056Y10024D01*
X-21983Y9806D01*
Y9733D01*
X-22056Y9516D01*
X-22201Y9371D01*
X-22419Y9298D01*
X-22491D01*
X-22709Y9371D01*
X-22854Y9516D01*
X-22926Y9733D01*
Y9806D01*
X-22854Y10024D01*
X-22709Y10169D01*
X-22419Y10241D01*
X-22056D01*
X-21693Y10169D01*
X-21475Y10024D01*
X-21403Y9806D01*
Y9661D01*
X-21475Y9443D01*
X-21620Y9371D01*
X-21548Y10728D02*
X-21475Y10655D01*
X-21403Y10728D01*
X-21475Y10800D01*
X-21548Y10728D01*
X-22926Y12004D02*
Y11279D01*
X-22273Y11206D01*
X-22346Y11279D01*
X-22419Y11497D01*
Y11714D01*
X-22346Y11932D01*
X-22201Y12077D01*
X-21983Y12150D01*
X-21838D01*
X-21620Y12077D01*
X-21475Y11932D01*
X-21403Y11714D01*
Y11497D01*
X-21475Y11279D01*
X-21548Y11206D01*
X-21693Y11134D01*
X-22926Y12926D02*
X-22854Y12708D01*
X-22636Y12563D01*
X-22273Y12491D01*
X-22056D01*
X-21693Y12563D01*
X-21475Y12708D01*
X-21403Y12926D01*
Y13071D01*
X-21475Y13289D01*
X-21693Y13434D01*
X-22056Y13506D01*
X-22273D01*
X-22636Y13434D01*
X-22854Y13289D01*
X-22926Y13071D01*
Y12926D01*
X10384Y34496D02*
Y34568D01*
X10456Y34713D01*
X10529Y34786D01*
X10674Y34858D01*
X10964D01*
X11109Y34786D01*
X11182Y34713D01*
X11254Y34568D01*
Y34423D01*
X11182Y34278D01*
X11037Y34060D01*
X10311Y33335D01*
X11327D01*
X12684Y34858D02*
X11958Y33335D01*
X11668Y34858D02*
X12684D01*
X13097Y33480D02*
X13025Y33407D01*
X13097Y33335D01*
X13170Y33407D01*
X13097Y33480D01*
X13939Y34858D02*
X13721Y34786D01*
X13576Y34568D01*
X13504Y34205D01*
Y33988D01*
X13576Y33625D01*
X13721Y33407D01*
X13939Y33335D01*
X14084D01*
X14302Y33407D01*
X14447Y33625D01*
X14519Y33988D01*
Y34205D01*
X14447Y34568D01*
X14302Y34786D01*
X14084Y34858D01*
X13939D01*
X15296D02*
X15078Y34786D01*
X14933Y34568D01*
X14860Y34205D01*
Y33988D01*
X14933Y33625D01*
X15078Y33407D01*
X15296Y33335D01*
X15441D01*
X15658Y33407D01*
X15804Y33625D01*
X15876Y33988D01*
Y34205D01*
X15804Y34568D01*
X15658Y34786D01*
X15441Y34858D01*
X15296D01*
X-28639Y7503D02*
X-28711D01*
X-28856Y7576D01*
X-28929Y7648D01*
X-29001Y7794D01*
Y8084D01*
X-28929Y8229D01*
X-28856Y8301D01*
X-28711Y8374D01*
X-28566D01*
X-28421Y8301D01*
X-28203Y8156D01*
X-27478Y7431D01*
Y8447D01*
X-28711Y8788D02*
X-28784Y8933D01*
X-29001Y9150D01*
X-27478D01*
X-27623Y9978D02*
X-27550Y9905D01*
X-27478Y9978D01*
X-27550Y10050D01*
X-27623Y9978D01*
X-29001Y10819D02*
X-28929Y10601D01*
X-28711Y10456D01*
X-28348Y10384D01*
X-28131D01*
X-27768Y10456D01*
X-27550Y10601D01*
X-27478Y10819D01*
Y10964D01*
X-27550Y11182D01*
X-27768Y11327D01*
X-28131Y11400D01*
X-28348D01*
X-28711Y11327D01*
X-28929Y11182D01*
X-29001Y10964D01*
Y10819D01*
Y12176D02*
X-28929Y11958D01*
X-28711Y11813D01*
X-28348Y11741D01*
X-28131D01*
X-27768Y11813D01*
X-27550Y11958D01*
X-27478Y12176D01*
Y12321D01*
X-27550Y12539D01*
X-27768Y12684D01*
X-28131Y12756D01*
X-28348D01*
X-28711Y12684D01*
X-28929Y12539D01*
X-29001Y12321D01*
Y12176D01*
M02*
