G04*
G04 #@! TF.GenerationSoftware,Altium Limited,Altium Designer,19.1.8 (144)*
G04*
G04 Layer_Color=16711935*
%FSLAX43Y43*%
%MOMM*%
G71*
G01*
G75*
%ADD13C,0.013*%
%ADD25C,0.150*%
D13*
X0Y4500D02*
X4500D01*
X-1000Y11528D02*
X4500D01*
X-200318Y48168D02*
X-196762D01*
D25*
X-28868Y30388D02*
G03*
X-29868Y31388I-1000J0D01*
G01*
X-28868Y7972D02*
G03*
X-25868Y4972I3000J0D01*
G01*
X-14752D02*
G03*
X-11752Y7972I0J3000D01*
G01*
X-10752Y11528D02*
G03*
X-11752Y10528I0J-1000D01*
G01*
X0D02*
G03*
X-1000Y11528I-1000J0D01*
G01*
X4500Y12088D02*
G03*
X1500Y15088I-3000J0D01*
G01*
X-12312D02*
G03*
X-15312Y12088I0J-3000D01*
G01*
X-16312Y8528D02*
G03*
X-15312Y9528I0J1000D01*
G01*
X-25312D02*
G03*
X-24312Y8528I1000J0D01*
G01*
X-25312Y31944D02*
G03*
X-28312Y34944I-3000J0D01*
G01*
X-196762Y35944D02*
G03*
X-195762Y34944I1000J0D01*
G01*
X-196262Y49168D02*
G03*
X-196762Y48668I0J-500D01*
G01*
X-200318D02*
G03*
X-200818Y49168I-500J0D01*
G01*
X-200318Y34388D02*
G03*
X-197318Y31388I3000J0D01*
G01*
X0Y0D02*
Y10528D01*
X-197318Y31388D02*
X-29868D01*
X-28868Y7972D02*
Y30388D01*
X-25868Y4972D02*
X-14752D01*
X-11752Y7972D02*
Y10528D01*
X-10752Y11528D02*
X-1000D01*
X4500Y0D02*
Y12088D01*
X4500D02*
X4500D01*
X-12312Y15088D02*
X1500D01*
X-15312Y9528D02*
Y12088D01*
X-24312Y8528D02*
X-16312D01*
X-25312Y9528D02*
X-25312D01*
Y31944D01*
X-25312D02*
X-25312D01*
X-28312Y34944D02*
Y34944D01*
X-195762D02*
X-28312D01*
X-196762Y35944D02*
X-196762D01*
Y48668D01*
X-196262Y49168D02*
Y49168D01*
X-195365D01*
Y62122D01*
X-201715D02*
X-195365D01*
X-201715Y49168D02*
Y62122D01*
Y49168D02*
X-200818D01*
Y49168D02*
Y49168D01*
X-200318Y48668D02*
X-200318D01*
Y34388D02*
Y48668D01*
M02*
